<mxfile host="app.diagrams.net" modified="2022-07-18T07:30:19.351Z" agent="5.0 (Windows NT 10.0; Win64; x64) AppleWebKit/537.36 (KHTML, like Gecko) Chrome/103.0.0.0 Safari/537.36" etag="FZbv3QGmdUcRr-mNhPeF" version="16.6.5" type="github">
  <diagram id="C5RBs43oDa-KdzZeNtuy" name="Page-1">
    <mxGraphModel dx="1185" dy="628" grid="1" gridSize="10" guides="1" tooltips="1" connect="1" arrows="1" fold="1" page="1" pageScale="1" pageWidth="827" pageHeight="1169" math="0" shadow="0">
      <root>
        <mxCell id="WIyWlLk6GJQsqaUBKTNV-0" />
        <mxCell id="WIyWlLk6GJQsqaUBKTNV-1" parent="WIyWlLk6GJQsqaUBKTNV-0" />
        <mxCell id="tm5VNomxOWkbdqPjrVc3-0" value="新增批发订单" style="rounded=1;whiteSpace=wrap;html=1;" vertex="1" parent="WIyWlLk6GJQsqaUBKTNV-1">
          <mxGeometry x="360" y="40" width="120" height="40" as="geometry" />
        </mxCell>
        <mxCell id="tm5VNomxOWkbdqPjrVc3-2" value="" style="endArrow=classic;html=1;rounded=0;" edge="1" parent="WIyWlLk6GJQsqaUBKTNV-1">
          <mxGeometry width="50" height="50" relative="1" as="geometry">
            <mxPoint x="419.8" y="80" as="sourcePoint" />
            <mxPoint x="419.8" y="120" as="targetPoint" />
          </mxGeometry>
        </mxCell>
        <mxCell id="tm5VNomxOWkbdqPjrVc3-11" style="edgeStyle=orthogonalEdgeStyle;rounded=0;orthogonalLoop=1;jettySize=auto;html=1;exitX=0;exitY=0.5;exitDx=0;exitDy=0;exitPerimeter=0;entryX=0;entryY=0.75;entryDx=0;entryDy=0;" edge="1" parent="WIyWlLk6GJQsqaUBKTNV-1" source="tm5VNomxOWkbdqPjrVc3-7" target="tm5VNomxOWkbdqPjrVc3-0">
          <mxGeometry relative="1" as="geometry">
            <Array as="points">
              <mxPoint x="340" y="170" />
              <mxPoint x="340" y="70" />
            </Array>
          </mxGeometry>
        </mxCell>
        <mxCell id="tm5VNomxOWkbdqPjrVc3-14" style="edgeStyle=orthogonalEdgeStyle;rounded=0;orthogonalLoop=1;jettySize=auto;html=1;exitX=0.5;exitY=1;exitDx=0;exitDy=0;exitPerimeter=0;entryX=0.5;entryY=0;entryDx=0;entryDy=0;entryPerimeter=0;" edge="1" parent="WIyWlLk6GJQsqaUBKTNV-1" source="tm5VNomxOWkbdqPjrVc3-7" target="tm5VNomxOWkbdqPjrVc3-13">
          <mxGeometry relative="1" as="geometry" />
        </mxCell>
        <mxCell id="tm5VNomxOWkbdqPjrVc3-7" value="&lt;span&gt;表单必填项&lt;/span&gt;" style="strokeWidth=2;html=1;shape=mxgraph.flowchart.decision;whiteSpace=wrap;" vertex="1" parent="WIyWlLk6GJQsqaUBKTNV-1">
          <mxGeometry x="370" y="120" width="100" height="100" as="geometry" />
        </mxCell>
        <mxCell id="tm5VNomxOWkbdqPjrVc3-12" value="否" style="text;html=1;strokeColor=none;fillColor=none;align=center;verticalAlign=middle;whiteSpace=wrap;rounded=0;" vertex="1" parent="WIyWlLk6GJQsqaUBKTNV-1">
          <mxGeometry x="340" y="160" width="30" height="10" as="geometry" />
        </mxCell>
        <mxCell id="tm5VNomxOWkbdqPjrVc3-19" style="edgeStyle=orthogonalEdgeStyle;rounded=0;orthogonalLoop=1;jettySize=auto;html=1;exitX=0;exitY=0.5;exitDx=0;exitDy=0;exitPerimeter=0;entryX=0;entryY=1;entryDx=0;entryDy=0;" edge="1" parent="WIyWlLk6GJQsqaUBKTNV-1" source="tm5VNomxOWkbdqPjrVc3-13" target="tm5VNomxOWkbdqPjrVc3-12">
          <mxGeometry relative="1" as="geometry" />
        </mxCell>
        <mxCell id="tm5VNomxOWkbdqPjrVc3-13" value="表格必填项" style="strokeWidth=2;html=1;shape=mxgraph.flowchart.decision;whiteSpace=wrap;" vertex="1" parent="WIyWlLk6GJQsqaUBKTNV-1">
          <mxGeometry x="370" y="260" width="100" height="100" as="geometry" />
        </mxCell>
        <mxCell id="tm5VNomxOWkbdqPjrVc3-20" value="否" style="text;html=1;strokeColor=none;fillColor=none;align=center;verticalAlign=middle;whiteSpace=wrap;rounded=0;" vertex="1" parent="WIyWlLk6GJQsqaUBKTNV-1">
          <mxGeometry x="340" y="300" width="30" height="10" as="geometry" />
        </mxCell>
      </root>
    </mxGraphModel>
  </diagram>
</mxfile>
